<?xml version="1.0" encoding="UTF-8" standalone="no"?>
<!DOCTYPE svg PUBLIC "-//W3C//DTD SVG 1.1//EN"
 "http://www.w3.org/Graphics/SVG/1.1/DTD/svg11.dtd">
<!-- Generated by graphviz version 2.44.0 (20200408.0750)
 -->
<!-- Title: G Pages: 1 -->
<svg width="1954pt" height="663pt"
 viewBox="0.00 0.00 1954.00 663.00" xmlns="http://www.w3.org/2000/svg" xmlns:xlink="http://www.w3.org/1999/xlink">
<g id="graph0" class="graph" transform="scale(1 1) rotate(0) translate(4 659)">
<title>G</title>
<polygon fill="white" stroke="transparent" points="-4,4 -4,-659 1950,-659 1950,4 -4,4"/>
<g id="clust29" class="cluster">
<title>cluster_legend</title>
</g>
<!-- node5 -->
<g id="node1" class="node">
<title>node5</title>
<image xlink:href="/var/folders/nn/x3wxl9dd3v7_rq4_cmhvs2hc0000gn/T/node5_56127.svg" width="155px" height="54px" preserveAspectRatio="xMinYMin meet" x="11.5" y="-168.5"/>
</g>
<!-- leaf6 -->
<g id="node29" class="node">
<title>leaf6</title>
<polygon fill="none" stroke="#444443" stroke-width="0" points="61,-79.5 0,-79.5 0,-3.5 61,-3.5 61,-79.5"/>
<image xlink:href="/var/folders/nn/x3wxl9dd3v7_rq4_cmhvs2hc0000gn/T/leaf6_56127.svg" width="53px" height="68px" preserveAspectRatio="xMinYMin meet" x="4.5" y="-75.5"/>
</g>
<!-- node5&#45;&gt;leaf6 -->
<g id="edge1" class="edge">
<title>node5&#45;&gt;leaf6</title>
<path fill="none" stroke="#444443" stroke-width="0.3" d="M70.62,-110.3C65.62,-101.83 60.08,-92.49 54.77,-83.51"/>
<polygon fill="#444443" stroke="#444443" stroke-width="0.3" points="55.75,-82.42 52.51,-79.69 53.34,-83.84 55.75,-82.42"/>
</g>
<!-- leaf7 -->
<g id="node30" class="node">
<title>leaf7</title>
<polygon fill="none" stroke="#444443" stroke-width="0" points="142,-83 75,-83 75,0 142,0 142,-83"/>
<image xlink:href="/var/folders/nn/x3wxl9dd3v7_rq4_cmhvs2hc0000gn/T/leaf7_56127.svg" width="59px" height="75px" preserveAspectRatio="xMinYMin meet" x="79.5" y="-78.5"/>
</g>
<!-- node5&#45;&gt;leaf7 -->
<g id="edge2" class="edge">
<title>node5&#45;&gt;leaf7</title>
<path fill="none" stroke="#444443" stroke-width="0.3" d="M94.66,-110.3C96.14,-103.08 97.74,-95.23 99.31,-87.51"/>
<polygon fill="#444443" stroke="#444443" stroke-width="0.3" points="100.76,-87.44 100.19,-83.24 98.01,-86.88 100.76,-87.44"/>
</g>
<!-- leaf8 -->
<g id="node31" class="node">
<title>leaf8</title>
<polygon fill="none" stroke="#444443" stroke-width="0" points="207,-160 184,-160 184,-123 207,-123 207,-160"/>
<image xlink:href="/var/folders/nn/x3wxl9dd3v7_rq4_cmhvs2hc0000gn/T/leaf8_56127.svg" width="15px" height="29px" preserveAspectRatio="xMinYMin meet" x="188.5" y="-155.5"/>
</g>
<!-- node5&#45;&gt;leaf8 -->
<!-- node4 -->
<g id="node2" class="node">
<title>node4</title>
<image xlink:href="/var/folders/nn/x3wxl9dd3v7_rq4_cmhvs2hc0000gn/T/node4_56127.svg" width="155px" height="58px" preserveAspectRatio="xMinYMin meet" x="77.5" y="-262"/>
</g>
<!-- node4&#45;&gt;node5 -->
<g id="edge4" class="edge">
<title>node4&#45;&gt;node5</title>
<path fill="none" stroke="#444443" stroke-width="0.3" d="M130.86,-199.94C125.1,-192.13 118.92,-183.75 113.12,-175.88"/>
<polygon fill="#444443" stroke="#444443" stroke-width="0.3" points="114.16,-174.93 110.65,-172.54 111.9,-176.59 114.16,-174.93"/>
</g>
<!-- node4&#45;&gt;leaf8 -->
<g id="edge5" class="edge">
<title>node4&#45;&gt;leaf8</title>
<path fill="none" stroke="#444443" stroke-width="0.3" d="M169.19,-199.94C174.67,-187.97 180.76,-174.68 185.7,-163.89"/>
<polygon fill="#444443" stroke="#444443" stroke-width="0.3" points="187.07,-164.26 187.46,-160.04 184.52,-163.1 187.07,-164.26"/>
</g>
<!-- leaf9 -->
<g id="node32" class="node">
<title>leaf9</title>
<polygon fill="none" stroke="#444443" stroke-width="0" points="279.5,-255 249.5,-255 249.5,-211 279.5,-211 279.5,-255"/>
<image xlink:href="/var/folders/nn/x3wxl9dd3v7_rq4_cmhvs2hc0000gn/T/leaf9_56127.svg" width="22px" height="36px" preserveAspectRatio="xMinYMin meet" x="253.5" y="-251"/>
</g>
<!-- node4&#45;&gt;leaf9 -->
<!-- node3 -->
<g id="node3" class="node">
<title>node3</title>
<image xlink:href="/var/folders/nn/x3wxl9dd3v7_rq4_cmhvs2hc0000gn/T/node3_56127.svg" width="157px" height="59px" preserveAspectRatio="xMinYMin meet" x="175.5" y="-345.5"/>
</g>
<!-- node3&#45;&gt;node4 -->
<g id="edge7" class="edge">
<title>node3&#45;&gt;node4</title>
<path fill="none" stroke="#444443" stroke-width="0.3" d="M213.8,-282.82C208.18,-278.19 202.37,-273.41 196.7,-268.74"/>
<polygon fill="#444443" stroke="#444443" stroke-width="0.3" points="197.54,-267.62 193.56,-266.16 195.76,-269.78 197.54,-267.62"/>
</g>
<!-- node10 -->
<g id="node6" class="node">
<title>node10</title>
<image xlink:href="/var/folders/nn/x3wxl9dd3v7_rq4_cmhvs2hc0000gn/T/node10_56127.svg" width="151px" height="46px" preserveAspectRatio="xMinYMin meet" x="354.5" y="-339.5"/>
</g>
<!-- node3&#45;&gt;node10 -->
<!-- node3&#45;&gt;leaf9 -->
<g id="edge8" class="edge">
<title>node3&#45;&gt;leaf9</title>
<path fill="none" stroke="#444443" stroke-width="0.3" d="M257.91,-282.82C258.96,-275.05 260.06,-266.87 261.06,-259.47"/>
<polygon fill="#444443" stroke="#444443" stroke-width="0.3" points="262.46,-259.6 261.6,-255.45 259.68,-259.23 262.46,-259.6"/>
</g>
<!-- node14 -->
<g id="node4" class="node">
<title>node14</title>
<image xlink:href="/var/folders/nn/x3wxl9dd3v7_rq4_cmhvs2hc0000gn/T/node14_56127.svg" width="147px" height="44px" preserveAspectRatio="xMinYMin meet" x="329.5" y="-163.5"/>
</g>
<!-- leaf15 -->
<g id="node33" class="node">
<title>leaf15</title>
<polygon fill="none" stroke="#444443" stroke-width="0" points="397,-60 372,-60 372,-23 397,-23 397,-60"/>
<image xlink:href="/var/folders/nn/x3wxl9dd3v7_rq4_cmhvs2hc0000gn/T/leaf15_56127.svg" width="17px" height="29px" preserveAspectRatio="xMinYMin meet" x="376.5" y="-55.5"/>
</g>
<!-- node14&#45;&gt;leaf15 -->
<g id="edge10" class="edge">
<title>node14&#45;&gt;leaf15</title>
<path fill="none" stroke="#444443" stroke-width="0.3" d="M397.86,-115.26C394.97,-99.5 391.28,-79.42 388.51,-64.34"/>
<polygon fill="#444443" stroke="#444443" stroke-width="0.3" points="389.86,-63.91 387.76,-60.23 387.1,-64.42 389.86,-63.91"/>
</g>
<!-- leaf16 -->
<g id="node34" class="node">
<title>leaf16</title>
<polygon fill="none" stroke="#444443" stroke-width="0" points="430.5,-57 410.5,-57 410.5,-26 430.5,-26 430.5,-57"/>
<image xlink:href="/var/folders/nn/x3wxl9dd3v7_rq4_cmhvs2hc0000gn/T/leaf16_56127.svg" width="12px" height="23px" preserveAspectRatio="xMinYMin meet" x="414.5" y="-52.5"/>
</g>
<!-- node14&#45;&gt;leaf16 -->
<g id="edge11" class="edge">
<title>node14&#45;&gt;leaf16</title>
<path fill="none" stroke="#444443" stroke-width="0.3" d="M407.14,-115.26C410.24,-98.36 414.26,-76.49 417.07,-61.15"/>
<polygon fill="#444443" stroke="#444443" stroke-width="0.3" points="418.49,-61.2 417.83,-57.01 415.74,-60.69 418.49,-61.2"/>
</g>
<!-- node12 -->
<g id="node5" class="node">
<title>node12</title>
<image xlink:href="/var/folders/nn/x3wxl9dd3v7_rq4_cmhvs2hc0000gn/T/node12_56127.svg" width="151px" height="45px" preserveAspectRatio="xMinYMin meet" x="348.5" y="-255"/>
</g>
<!-- node12&#45;&gt;node14 -->
<g id="edge14" class="edge">
<title>node12&#45;&gt;node14</title>
<path fill="none" stroke="#444443" stroke-width="0.3" d="M417.43,-206.11C414.9,-195.35 411.96,-182.81 409.36,-171.73"/>
<polygon fill="#444443" stroke="#444443" stroke-width="0.3" points="410.69,-171.29 408.42,-167.71 407.97,-171.93 410.69,-171.29"/>
</g>
<!-- leaf13 -->
<g id="node35" class="node">
<title>leaf13</title>
<polygon fill="none" stroke="#444443" stroke-width="0" points="311,-162 284,-162 284,-121 311,-121 311,-162"/>
<image xlink:href="/var/folders/nn/x3wxl9dd3v7_rq4_cmhvs2hc0000gn/T/leaf13_56127.svg" width="19px" height="33px" preserveAspectRatio="xMinYMin meet" x="288.5" y="-157.5"/>
</g>
<!-- node12&#45;&gt;leaf13 -->
<g id="edge13" class="edge">
<title>node12&#45;&gt;leaf13</title>
<path fill="none" stroke="#444443" stroke-width="0.3" d="M387.39,-206.35C363.53,-189.4 333.33,-167.95 314.72,-154.73"/>
<polygon fill="#444443" stroke="#444443" stroke-width="0.3" points="315.23,-153.38 311.16,-152.2 313.61,-155.66 315.23,-153.38"/>
</g>
<!-- node10&#45;&gt;node12 -->
<g id="edge17" class="edge">
<title>node10&#45;&gt;node12</title>
<path fill="none" stroke="#444443" stroke-width="0.3" d="M427.57,-289.26C426.97,-281.11 426.3,-272.06 425.69,-263.68"/>
<polygon fill="#444443" stroke="#444443" stroke-width="0.3" points="427.08,-263.52 425.39,-259.63 424.28,-263.72 427.08,-263.52"/>
</g>
<!-- leaf11 -->
<g id="node36" class="node">
<title>leaf11</title>
<polygon fill="none" stroke="#444443" stroke-width="0" points="330,-261 289,-261 289,-205 330,-205 330,-261"/>
<image xlink:href="/var/folders/nn/x3wxl9dd3v7_rq4_cmhvs2hc0000gn/T/leaf11_56127.svg" width="33px" height="48px" preserveAspectRatio="xMinYMin meet" x="293.5" y="-257"/>
</g>
<!-- node10&#45;&gt;leaf11 -->
<g id="edge16" class="edge">
<title>node10&#45;&gt;leaf11</title>
<path fill="none" stroke="#444443" stroke-width="0.3" d="M391.2,-289.49C372.33,-276.67 350.14,-261.6 333.65,-250.4"/>
<polygon fill="#444443" stroke="#444443" stroke-width="0.3" points="334.11,-249.02 330.01,-247.93 332.54,-251.34 334.11,-249.02"/>
</g>
<!-- node2 -->
<g id="node7" class="node">
<title>node2</title>
<image xlink:href="/var/folders/nn/x3wxl9dd3v7_rq4_cmhvs2hc0000gn/T/node2_56127.svg" width="155px" height="61px" preserveAspectRatio="xMinYMin meet" x="438.5" y="-434.5"/>
</g>
<!-- node2&#45;&gt;node3 -->
<g id="edge19" class="edge">
<title>node2&#45;&gt;node3</title>
<path fill="none" stroke="#444443" stroke-width="0.3" d="M433.68,-376.64C403.93,-366.88 370.23,-355.82 340.09,-345.92"/>
<polygon fill="#444443" stroke="#444443" stroke-width="0.3" points="340.29,-344.51 336.05,-344.6 339.42,-347.18 340.29,-344.51"/>
</g>
<!-- node2&#45;&gt;node10 -->
<g id="edge20" class="edge">
<title>node2&#45;&gt;node10</title>
<path fill="none" stroke="#444443" stroke-width="0.3" d="M481.51,-369.51C473.95,-361.95 466,-354 458.66,-346.66"/>
<polygon fill="#444443" stroke="#444443" stroke-width="0.3" points="459.37,-345.39 455.55,-343.55 457.39,-347.37 459.37,-345.39"/>
</g>
<!-- node17 -->
<g id="node15" class="node">
<title>node17</title>
<image xlink:href="/var/folders/nn/x3wxl9dd3v7_rq4_cmhvs2hc0000gn/T/node17_56127.svg" width="154px" height="47px" preserveAspectRatio="xMinYMin meet" x="667.5" y="-427.5"/>
</g>
<!-- node2&#45;&gt;node17 -->
<!-- node20 -->
<g id="node8" class="node">
<title>node20</title>
<image xlink:href="/var/folders/nn/x3wxl9dd3v7_rq4_cmhvs2hc0000gn/T/node20_56127.svg" width="147px" height="45px" preserveAspectRatio="xMinYMin meet" x="491.5" y="-163.5"/>
</g>
<!-- node23 -->
<g id="node9" class="node">
<title>node23</title>
<image xlink:href="/var/folders/nn/x3wxl9dd3v7_rq4_cmhvs2hc0000gn/T/node23_56127.svg" width="151px" height="46px" preserveAspectRatio="xMinYMin meet" x="660.5" y="-164.5"/>
</g>
<!-- node20&#45;&gt;node23 -->
<!-- leaf21 -->
<g id="node37" class="node">
<title>leaf21</title>
<polygon fill="none" stroke="#444443" stroke-width="0" points="548,-59 523,-59 523,-24 548,-24 548,-59"/>
<image xlink:href="/var/folders/nn/x3wxl9dd3v7_rq4_cmhvs2hc0000gn/T/leaf21_56127.svg" width="17px" height="27px" preserveAspectRatio="xMinYMin meet" x="527.5" y="-54.5"/>
</g>
<!-- node20&#45;&gt;leaf21 -->
<g id="edge22" class="edge">
<title>node20&#45;&gt;leaf21</title>
<path fill="none" stroke="#444443" stroke-width="0.3" d="M556.88,-114.75C552.13,-98.68 546.08,-78.27 541.64,-63.24"/>
<polygon fill="#444443" stroke="#444443" stroke-width="0.3" points="542.91,-62.59 540.43,-59.16 540.22,-63.39 542.91,-62.59"/>
</g>
<!-- leaf22 -->
<g id="node38" class="node">
<title>leaf22</title>
<polygon fill="none" stroke="#444443" stroke-width="0" points="595,-65 562,-65 562,-18 595,-18 595,-65"/>
<image xlink:href="/var/folders/nn/x3wxl9dd3v7_rq4_cmhvs2hc0000gn/T/leaf22_56127.svg" width="25px" height="39px" preserveAspectRatio="xMinYMin meet" x="566.5" y="-60.5"/>
</g>
<!-- node20&#45;&gt;leaf22 -->
<g id="edge23" class="edge">
<title>node20&#45;&gt;leaf22</title>
<path fill="none" stroke="#444443" stroke-width="0.3" d="M568.18,-114.75C570.18,-100.77 572.64,-83.51 574.66,-69.36"/>
<polygon fill="#444443" stroke="#444443" stroke-width="0.3" points="576.1,-69.23 575.27,-65.08 573.32,-68.84 576.1,-69.23"/>
</g>
<!-- leaf24 -->
<g id="node39" class="node">
<title>leaf24</title>
<polygon fill="none" stroke="#444443" stroke-width="0" points="741.5,-70 699.5,-70 699.5,-13 741.5,-13 741.5,-70"/>
<image xlink:href="/var/folders/nn/x3wxl9dd3v7_rq4_cmhvs2hc0000gn/T/leaf24_56127.svg" width="34px" height="49px" preserveAspectRatio="xMinYMin meet" x="703.5" y="-65.5"/>
</g>
<!-- node23&#45;&gt;leaf24 -->
<g id="edge25" class="edge">
<title>node23&#45;&gt;leaf24</title>
<path fill="none" stroke="#444443" stroke-width="0.3" d="M731.52,-114.5C729.63,-102.16 727.36,-87.31 725.37,-74.32"/>
<polygon fill="#444443" stroke="#444443" stroke-width="0.3" points="726.75,-74.09 724.76,-70.35 723.98,-74.51 726.75,-74.09"/>
</g>
<!-- leaf25 -->
<g id="node40" class="node">
<title>leaf25</title>
<polygon fill="none" stroke="#444443" stroke-width="0" points="780,-58 755,-58 755,-25 780,-25 780,-58"/>
<image xlink:href="/var/folders/nn/x3wxl9dd3v7_rq4_cmhvs2hc0000gn/T/leaf25_56127.svg" width="17px" height="25px" preserveAspectRatio="xMinYMin meet" x="759.5" y="-53.5"/>
</g>
<!-- node23&#45;&gt;leaf25 -->
<g id="edge26" class="edge">
<title>node23&#45;&gt;leaf25</title>
<path fill="none" stroke="#444443" stroke-width="0.3" d="M743.99,-114.5C749.34,-98.12 756.14,-77.3 761.04,-62.27"/>
<polygon fill="#444443" stroke="#444443" stroke-width="0.3" points="762.46,-62.43 762.37,-58.2 759.8,-61.56 762.46,-62.43"/>
</g>
<!-- node19 -->
<g id="node10" class="node">
<title>node19</title>
<image xlink:href="/var/folders/nn/x3wxl9dd3v7_rq4_cmhvs2hc0000gn/T/node19_56127.svg" width="151px" height="47px" preserveAspectRatio="xMinYMin meet" x="655.5" y="-256"/>
</g>
<!-- node19&#45;&gt;node20 -->
<g id="edge28" class="edge">
<title>node19&#45;&gt;node20</title>
<path fill="none" stroke="#444443" stroke-width="0.3" d="M681.14,-205.39C660.46,-194.23 636.41,-181.27 615.54,-170.02"/>
<polygon fill="#444443" stroke="#444443" stroke-width="0.3" points="616.14,-168.75 611.96,-168.09 614.81,-171.22 616.14,-168.75"/>
</g>
<!-- node19&#45;&gt;node23 -->
<g id="edge29" class="edge">
<title>node19&#45;&gt;node23</title>
<path fill="none" stroke="#444443" stroke-width="0.3" d="M732,-205.15C732.57,-194.96 733.22,-183.3 733.81,-172.82"/>
<polygon fill="#444443" stroke="#444443" stroke-width="0.3" points="735.21,-172.79 734.04,-168.72 732.41,-172.63 735.21,-172.79"/>
</g>
<!-- node26 -->
<g id="node13" class="node">
<title>node26</title>
<image xlink:href="/var/folders/nn/x3wxl9dd3v7_rq4_cmhvs2hc0000gn/T/node26_56127.svg" width="151px" height="48px" preserveAspectRatio="xMinYMin meet" x="828.5" y="-257"/>
</g>
<!-- node19&#45;&gt;node26 -->
<!-- node27 -->
<g id="node11" class="node">
<title>node27</title>
<image xlink:href="/var/folders/nn/x3wxl9dd3v7_rq4_cmhvs2hc0000gn/T/node27_56127.svg" width="154px" height="45px" preserveAspectRatio="xMinYMin meet" x="826.5" y="-163.5"/>
</g>
<!-- node30 -->
<g id="node12" class="node">
<title>node30</title>
<image xlink:href="/var/folders/nn/x3wxl9dd3v7_rq4_cmhvs2hc0000gn/T/node30_56127.svg" width="151px" height="45px" preserveAspectRatio="xMinYMin meet" x="1002.5" y="-163.5"/>
</g>
<!-- node27&#45;&gt;node30 -->
<!-- leaf28 -->
<g id="node41" class="node">
<title>leaf28</title>
<polygon fill="none" stroke="#444443" stroke-width="0" points="890,-68.5 851,-68.5 851,-14.5 890,-14.5 890,-68.5"/>
<image xlink:href="/var/folders/nn/x3wxl9dd3v7_rq4_cmhvs2hc0000gn/T/leaf28_56127.svg" width="31px" height="46px" preserveAspectRatio="xMinYMin meet" x="855.5" y="-64.5"/>
</g>
<!-- node27&#45;&gt;leaf28 -->
<g id="edge31" class="edge">
<title>node27&#45;&gt;leaf28</title>
<path fill="none" stroke="#444443" stroke-width="0.3" d="M894.83,-114.75C890.5,-101.9 885.24,-86.28 880.72,-72.85"/>
<polygon fill="#444443" stroke="#444443" stroke-width="0.3" points="881.95,-72.1 879.34,-68.76 879.29,-73 881.95,-72.1"/>
</g>
<!-- leaf29 -->
<g id="node42" class="node">
<title>leaf29</title>
<polygon fill="none" stroke="#444443" stroke-width="0" points="971,-83 904,-83 904,0 971,0 971,-83"/>
<image xlink:href="/var/folders/nn/x3wxl9dd3v7_rq4_cmhvs2hc0000gn/T/leaf29_56127.svg" width="59px" height="75px" preserveAspectRatio="xMinYMin meet" x="908.5" y="-78.5"/>
</g>
<!-- node27&#45;&gt;leaf29 -->
<g id="edge32" class="edge">
<title>node27&#45;&gt;leaf29</title>
<path fill="none" stroke="#444443" stroke-width="0.3" d="M912.43,-114.75C915.36,-106.32 918.7,-96.68 921.97,-87.26"/>
<polygon fill="#444443" stroke="#444443" stroke-width="0.3" points="923.38,-87.48 923.37,-83.24 920.73,-86.56 923.38,-87.48"/>
</g>
<!-- leaf31 -->
<g id="node43" class="node">
<title>leaf31</title>
<polygon fill="none" stroke="#444443" stroke-width="0" points="1067.5,-56 1047.5,-56 1047.5,-27 1067.5,-27 1067.5,-56"/>
<image xlink:href="/var/folders/nn/x3wxl9dd3v7_rq4_cmhvs2hc0000gn/T/leaf31_56127.svg" width="12px" height="21px" preserveAspectRatio="xMinYMin meet" x="1051.5" y="-51.5"/>
</g>
<!-- node30&#45;&gt;leaf31 -->
<g id="edge34" class="edge">
<title>node30&#45;&gt;leaf31</title>
<path fill="none" stroke="#444443" stroke-width="0.3" d="M1072.25,-114.75C1068.73,-97.54 1064.2,-75.35 1061.1,-60.13"/>
<polygon fill="#444443" stroke="#444443" stroke-width="0.3" points="1062.43,-59.67 1060.26,-56.03 1059.69,-60.23 1062.43,-59.67"/>
</g>
<!-- leaf32 -->
<g id="node44" class="node">
<title>leaf32</title>
<polygon fill="none" stroke="#444443" stroke-width="0" points="1110,-63.5 1081,-63.5 1081,-19.5 1110,-19.5 1110,-63.5"/>
<image xlink:href="/var/folders/nn/x3wxl9dd3v7_rq4_cmhvs2hc0000gn/T/leaf32_56127.svg" width="21px" height="36px" preserveAspectRatio="xMinYMin meet" x="1085.5" y="-59.5"/>
</g>
<!-- node30&#45;&gt;leaf32 -->
<g id="edge35" class="edge">
<title>node30&#45;&gt;leaf32</title>
<path fill="none" stroke="#444443" stroke-width="0.3" d="M1082.23,-114.75C1084.9,-100.24 1088.21,-82.18 1090.86,-67.75"/>
<polygon fill="#444443" stroke="#444443" stroke-width="0.3" points="1092.25,-67.97 1091.59,-63.78 1089.49,-67.46 1092.25,-67.97"/>
</g>
<!-- node26&#45;&gt;node27 -->
<g id="edge37" class="edge">
<title>node26&#45;&gt;node27</title>
<path fill="none" stroke="#444443" stroke-width="0.3" d="M903.5,-204.66C903.5,-194.4 903.5,-182.7 903.5,-172.24"/>
<polygon fill="#444443" stroke="#444443" stroke-width="0.3" points="904.9,-172.14 903.5,-168.14 902.1,-172.14 904.9,-172.14"/>
</g>
<!-- node26&#45;&gt;node30 -->
<g id="edge38" class="edge">
<title>node26&#45;&gt;node30</title>
<path fill="none" stroke="#444443" stroke-width="0.3" d="M956.18,-204.9C977.64,-193.86 1002.43,-181.12 1023.98,-170.03"/>
<polygon fill="#444443" stroke="#444443" stroke-width="0.3" points="1024.76,-171.2 1027.68,-168.13 1023.48,-168.71 1024.76,-171.2"/>
</g>
<!-- node18 -->
<g id="node14" class="node">
<title>node18</title>
<image xlink:href="/var/folders/nn/x3wxl9dd3v7_rq4_cmhvs2hc0000gn/T/node18_56127.svg" width="155px" height="54px" preserveAspectRatio="xMinYMin meet" x="656.5" y="-343.5"/>
</g>
<!-- node18&#45;&gt;node19 -->
<g id="edge40" class="edge">
<title>node18&#45;&gt;node19</title>
<path fill="none" stroke="#444443" stroke-width="0.3" d="M732.38,-285.15C732.14,-278.48 731.88,-271.41 731.63,-264.73"/>
<polygon fill="#444443" stroke="#444443" stroke-width="0.3" points="733.03,-264.56 731.48,-260.62 730.23,-264.67 733.03,-264.56"/>
</g>
<!-- node18&#45;&gt;node26 -->
<g id="edge41" class="edge">
<title>node18&#45;&gt;node26</title>
<path fill="none" stroke="#444443" stroke-width="0.3" d="M796.32,-285.38C811.66,-278.03 828.05,-270.17 843.27,-262.87"/>
<polygon fill="#444443" stroke="#444443" stroke-width="0.3" points="844.11,-264.02 847.11,-261.03 842.9,-261.5 844.11,-264.02"/>
</g>
<!-- leaf33 -->
<g id="node45" class="node">
<title>leaf33</title>
<polygon fill="none" stroke="#444443" stroke-width="0" points="854,-334.5 829,-334.5 829,-298.5 854,-298.5 854,-334.5"/>
<image xlink:href="/var/folders/nn/x3wxl9dd3v7_rq4_cmhvs2hc0000gn/T/leaf33_56127.svg" width="17px" height="28px" preserveAspectRatio="xMinYMin meet" x="833.5" y="-330.5"/>
</g>
<!-- node18&#45;&gt;leaf33 -->
<!-- node17&#45;&gt;node18 -->
<g id="edge43" class="edge">
<title>node17&#45;&gt;node18</title>
<path fill="none" stroke="#444443" stroke-width="0.3" d="M741.08,-376.76C740.06,-368.79 738.93,-359.95 737.86,-351.59"/>
<polygon fill="#444443" stroke="#444443" stroke-width="0.3" points="739.24,-351.31 737.34,-347.52 736.46,-351.67 739.24,-351.31"/>
</g>
<!-- node17&#45;&gt;leaf33 -->
<g id="edge44" class="edge">
<title>node17&#45;&gt;leaf33</title>
<path fill="none" stroke="#444443" stroke-width="0.3" d="M774.39,-377C791.37,-361.95 811.93,-343.72 825.78,-331.44"/>
<polygon fill="#444443" stroke="#444443" stroke-width="0.3" points="826.74,-332.46 828.8,-328.76 824.88,-330.36 826.74,-332.46"/>
</g>
<!-- node1 -->
<g id="node16" class="node">
<title>node1</title>
<image xlink:href="/var/folders/nn/x3wxl9dd3v7_rq4_cmhvs2hc0000gn/T/node1_56127.svg" width="151px" height="52px" preserveAspectRatio="xMinYMin meet" x="740.5" y="-521.5"/>
</g>
<!-- node1&#45;&gt;node2 -->
<g id="edge46" class="edge">
<title>node1&#45;&gt;node2</title>
<path fill="none" stroke="#444443" stroke-width="0.3" d="M735.89,-470.88C694.36,-458.56 643.51,-443.48 601.12,-430.9"/>
<polygon fill="#444443" stroke="#444443" stroke-width="0.3" points="601.28,-429.49 597.05,-429.69 600.48,-432.17 601.28,-429.49"/>
</g>
<!-- node1&#45;&gt;node17 -->
<g id="edge47" class="edge">
<title>node1&#45;&gt;node17</title>
<path fill="none" stroke="#444443" stroke-width="0.3" d="M792.25,-465.36C784.62,-455.79 776.13,-445.15 768.45,-435.52"/>
<polygon fill="#444443" stroke="#444443" stroke-width="0.3" points="769.47,-434.55 765.88,-432.3 767.28,-436.3 769.47,-434.55"/>
</g>
<!-- node34 -->
<g id="node27" class="node">
<title>node34</title>
<image xlink:href="/var/folders/nn/x3wxl9dd3v7_rq4_cmhvs2hc0000gn/T/node34_56127.svg" width="155px" height="65px" preserveAspectRatio="xMinYMin meet" x="942.5" y="-527.5"/>
</g>
<!-- node1&#45;&gt;node34 -->
<!-- node39 -->
<g id="node17" class="node">
<title>node39</title>
<image xlink:href="/var/folders/nn/x3wxl9dd3v7_rq4_cmhvs2hc0000gn/T/node39_56127.svg" width="147px" height="45px" preserveAspectRatio="xMinYMin meet" x="1168.5" y="-163.5"/>
</g>
<!-- node42 -->
<g id="node18" class="node">
<title>node42</title>
<image xlink:href="/var/folders/nn/x3wxl9dd3v7_rq4_cmhvs2hc0000gn/T/node42_56127.svg" width="147px" height="45px" preserveAspectRatio="xMinYMin meet" x="1337.5" y="-163.5"/>
</g>
<!-- node39&#45;&gt;node42 -->
<!-- leaf40 -->
<g id="node46" class="node">
<title>leaf40</title>
<polygon fill="none" stroke="#444443" stroke-width="0" points="1243.5,-65 1211.5,-65 1211.5,-18 1243.5,-18 1243.5,-65"/>
<image xlink:href="/var/folders/nn/x3wxl9dd3v7_rq4_cmhvs2hc0000gn/T/leaf40_56127.svg" width="24px" height="39px" preserveAspectRatio="xMinYMin meet" x="1215.5" y="-60.5"/>
</g>
<!-- node39&#45;&gt;leaf40 -->
<g id="edge49" class="edge">
<title>node39&#45;&gt;leaf40</title>
<path fill="none" stroke="#444443" stroke-width="0.3" d="M1237.82,-114.75C1235.82,-100.77 1233.36,-83.51 1231.34,-69.36"/>
<polygon fill="#444443" stroke="#444443" stroke-width="0.3" points="1232.68,-68.84 1230.73,-65.08 1229.9,-69.23 1232.68,-68.84"/>
</g>
<!-- leaf41 -->
<g id="node47" class="node">
<title>leaf41</title>
<polygon fill="none" stroke="#444443" stroke-width="0" points="1280,-60 1257,-60 1257,-23 1280,-23 1280,-60"/>
<image xlink:href="/var/folders/nn/x3wxl9dd3v7_rq4_cmhvs2hc0000gn/T/leaf41_56127.svg" width="15px" height="29px" preserveAspectRatio="xMinYMin meet" x="1261.5" y="-55.5"/>
</g>
<!-- node39&#45;&gt;leaf41 -->
<g id="edge50" class="edge">
<title>node39&#45;&gt;leaf41</title>
<path fill="none" stroke="#444443" stroke-width="0.3" d="M1248.59,-114.75C1252.94,-98.99 1258.43,-79.06 1262.54,-64.12"/>
<polygon fill="#444443" stroke="#444443" stroke-width="0.3" points="1263.95,-64.28 1263.67,-60.05 1261.25,-63.53 1263.95,-64.28"/>
</g>
<!-- leaf43 -->
<g id="node48" class="node">
<title>leaf43</title>
<polygon fill="none" stroke="#444443" stroke-width="0" points="1402.5,-57.5 1382.5,-57.5 1382.5,-25.5 1402.5,-25.5 1402.5,-57.5"/>
<image xlink:href="/var/folders/nn/x3wxl9dd3v7_rq4_cmhvs2hc0000gn/T/leaf43_56127.svg" width="12px" height="24px" preserveAspectRatio="xMinYMin meet" x="1386.5" y="-53.5"/>
</g>
<!-- node42&#45;&gt;leaf43 -->
<g id="edge52" class="edge">
<title>node42&#45;&gt;leaf43</title>
<path fill="none" stroke="#444443" stroke-width="0.3" d="M1405.77,-114.75C1402.72,-98.16 1398.83,-76.95 1396.05,-61.81"/>
<polygon fill="#444443" stroke="#444443" stroke-width="0.3" points="1397.39,-61.39 1395.29,-57.7 1394.64,-61.89 1397.39,-61.39"/>
</g>
<!-- leaf44 -->
<g id="node49" class="node">
<title>leaf44</title>
<polygon fill="none" stroke="#444443" stroke-width="0" points="1441,-58 1416,-58 1416,-25 1441,-25 1441,-58"/>
<image xlink:href="/var/folders/nn/x3wxl9dd3v7_rq4_cmhvs2hc0000gn/T/leaf44_56127.svg" width="17px" height="25px" preserveAspectRatio="xMinYMin meet" x="1420.5" y="-53.5"/>
</g>
<!-- node42&#45;&gt;leaf44 -->
<g id="edge53" class="edge">
<title>node42&#45;&gt;leaf44</title>
<path fill="none" stroke="#444443" stroke-width="0.3" d="M1415.23,-114.75C1418.24,-98.37 1422.08,-77.48 1424.85,-62.38"/>
<polygon fill="#444443" stroke="#444443" stroke-width="0.3" points="1426.26,-62.47 1425.6,-58.28 1423.5,-61.96 1426.26,-62.47"/>
</g>
<!-- node38 -->
<g id="node19" class="node">
<title>node38</title>
<image xlink:href="/var/folders/nn/x3wxl9dd3v7_rq4_cmhvs2hc0000gn/T/node38_56127.svg" width="151px" height="46px" preserveAspectRatio="xMinYMin meet" x="1232.5" y="-256"/>
</g>
<!-- node38&#45;&gt;node39 -->
<g id="edge55" class="edge">
<title>node38&#45;&gt;node39</title>
<path fill="none" stroke="#444443" stroke-width="0.3" d="M1288.05,-205.63C1280.13,-194.88 1270.94,-182.42 1262.83,-171.43"/>
<polygon fill="#444443" stroke="#444443" stroke-width="0.3" points="1263.85,-170.45 1260.35,-168.06 1261.6,-172.12 1263.85,-170.45"/>
</g>
<!-- node38&#45;&gt;node42 -->
<g id="edge56" class="edge">
<title>node38&#45;&gt;node42</title>
<path fill="none" stroke="#444443" stroke-width="0.3" d="M1337.57,-205.87C1350.16,-194.93 1364.83,-182.19 1377.7,-171"/>
<polygon fill="#444443" stroke="#444443" stroke-width="0.3" points="1378.83,-171.88 1380.93,-168.2 1376.99,-169.76 1378.83,-171.88"/>
</g>
<!-- node36 -->
<g id="node20" class="node">
<title>node36</title>
<image xlink:href="/var/folders/nn/x3wxl9dd3v7_rq4_cmhvs2hc0000gn/T/node36_56127.svg" width="147px" height="45px" preserveAspectRatio="xMinYMin meet" x="1169.5" y="-338.5"/>
</g>
<!-- node36&#45;&gt;node38 -->
<g id="edge59" class="edge">
<title>node36&#45;&gt;node38</title>
<path fill="none" stroke="#444443" stroke-width="0.3" d="M1263.07,-289.71C1269.76,-281.32 1277.23,-271.95 1284.11,-263.32"/>
<polygon fill="#444443" stroke="#444443" stroke-width="0.3" points="1285.22,-264.18 1286.62,-260.18 1283.03,-262.43 1285.22,-264.18"/>
</g>
<!-- node45 -->
<g id="node25" class="node">
<title>node45</title>
<image xlink:href="/var/folders/nn/x3wxl9dd3v7_rq4_cmhvs2hc0000gn/T/node45_56127.svg" width="155px" height="54px" preserveAspectRatio="xMinYMin meet" x="1456.5" y="-343.5"/>
</g>
<!-- node36&#45;&gt;node45 -->
<!-- leaf37 -->
<g id="node50" class="node">
<title>leaf37</title>
<polygon fill="none" stroke="#444443" stroke-width="0" points="1214,-248.5 1189,-248.5 1189,-217.5 1214,-217.5 1214,-248.5"/>
<image xlink:href="/var/folders/nn/x3wxl9dd3v7_rq4_cmhvs2hc0000gn/T/leaf37_56127.svg" width="17px" height="23px" preserveAspectRatio="xMinYMin meet" x="1193.5" y="-244"/>
</g>
<!-- node36&#45;&gt;leaf37 -->
<g id="edge58" class="edge">
<title>node36&#45;&gt;leaf37</title>
<path fill="none" stroke="#444443" stroke-width="0.3" d="M1229.53,-289.71C1223.46,-277.65 1216.36,-263.55 1210.83,-252.55"/>
<polygon fill="#444443" stroke="#444443" stroke-width="0.3" points="1212.07,-251.89 1209.02,-248.95 1209.57,-253.15 1212.07,-251.89"/>
</g>
<!-- node47 -->
<g id="node21" class="node">
<title>node47</title>
<image xlink:href="/var/folders/nn/x3wxl9dd3v7_rq4_cmhvs2hc0000gn/T/node47_56127.svg" width="157px" height="52px" preserveAspectRatio="xMinYMin meet" x="1499.5" y="-167.5"/>
</g>
<!-- node50 -->
<g id="node22" class="node">
<title>node50</title>
<image xlink:href="/var/folders/nn/x3wxl9dd3v7_rq4_cmhvs2hc0000gn/T/node50_56127.svg" width="151px" height="45px" preserveAspectRatio="xMinYMin meet" x="1678.5" y="-163.5"/>
</g>
<!-- node47&#45;&gt;node50 -->
<!-- leaf48 -->
<g id="node51" class="node">
<title>leaf48</title>
<polygon fill="none" stroke="#444443" stroke-width="0" points="1581,-83 1514,-83 1514,0 1581,0 1581,-83"/>
<image xlink:href="/var/folders/nn/x3wxl9dd3v7_rq4_cmhvs2hc0000gn/T/leaf48_56127.svg" width="59px" height="75px" preserveAspectRatio="xMinYMin meet" x="1518.5" y="-78.5"/>
</g>
<!-- node47&#45;&gt;leaf48 -->
<g id="edge61" class="edge">
<title>node47&#45;&gt;leaf48</title>
<path fill="none" stroke="#444443" stroke-width="0.3" d="M1568.58,-111.36C1566.26,-103.8 1563.72,-95.47 1561.22,-87.31"/>
<polygon fill="#444443" stroke="#444443" stroke-width="0.3" points="1562.5,-86.73 1559.99,-83.31 1559.83,-87.55 1562.5,-86.73"/>
</g>
<!-- leaf49 -->
<g id="node52" class="node">
<title>leaf49</title>
<polygon fill="none" stroke="#444443" stroke-width="0" points="1620,-58 1595,-58 1595,-25 1620,-25 1620,-58"/>
<image xlink:href="/var/folders/nn/x3wxl9dd3v7_rq4_cmhvs2hc0000gn/T/leaf49_56127.svg" width="17px" height="25px" preserveAspectRatio="xMinYMin meet" x="1599.5" y="-53.5"/>
</g>
<!-- node47&#45;&gt;leaf49 -->
<g id="edge62" class="edge">
<title>node47&#45;&gt;leaf49</title>
<path fill="none" stroke="#444443" stroke-width="0.3" d="M1586.42,-111.36C1591.31,-95.37 1597.25,-75.99 1601.57,-61.87"/>
<polygon fill="#444443" stroke="#444443" stroke-width="0.3" points="1602.91,-62.27 1602.75,-58.03 1600.24,-61.45 1602.91,-62.27"/>
</g>
<!-- leaf51 -->
<g id="node53" class="node">
<title>leaf51</title>
<polygon fill="none" stroke="#444443" stroke-width="0" points="1753,-60.5 1728,-60.5 1728,-22.5 1753,-22.5 1753,-60.5"/>
<image xlink:href="/var/folders/nn/x3wxl9dd3v7_rq4_cmhvs2hc0000gn/T/leaf51_56127.svg" width="17px" height="30px" preserveAspectRatio="xMinYMin meet" x="1732.5" y="-56.5"/>
</g>
<!-- node50&#45;&gt;leaf51 -->
<g id="edge64" class="edge">
<title>node50&#45;&gt;leaf51</title>
<path fill="none" stroke="#444443" stroke-width="0.3" d="M1750.08,-114.75C1748.02,-99.2 1745.42,-79.58 1743.45,-64.71"/>
<polygon fill="#444443" stroke="#444443" stroke-width="0.3" points="1744.82,-64.43 1742.91,-60.65 1742.05,-64.8 1744.82,-64.43"/>
</g>
<!-- leaf52 -->
<g id="node54" class="node">
<title>leaf52</title>
<polygon fill="none" stroke="#444443" stroke-width="0" points="1788.5,-59.5 1766.5,-59.5 1766.5,-23.5 1788.5,-23.5 1788.5,-59.5"/>
<image xlink:href="/var/folders/nn/x3wxl9dd3v7_rq4_cmhvs2hc0000gn/T/leaf52_56127.svg" width="14px" height="28px" preserveAspectRatio="xMinYMin meet" x="1770.5" y="-55.5"/>
</g>
<!-- node50&#45;&gt;leaf52 -->
<g id="edge65" class="edge">
<title>node50&#45;&gt;leaf52</title>
<path fill="none" stroke="#444443" stroke-width="0.3" d="M1759.81,-114.75C1763.69,-98.89 1768.61,-78.8 1772.28,-63.83"/>
<polygon fill="#444443" stroke="#444443" stroke-width="0.3" points="1773.68,-63.97 1773.28,-59.75 1770.96,-63.3 1773.68,-63.97"/>
</g>
<!-- node46 -->
<g id="node23" class="node">
<title>node46</title>
<image xlink:href="/var/folders/nn/x3wxl9dd3v7_rq4_cmhvs2hc0000gn/T/node46_56127.svg" width="154px" height="47px" preserveAspectRatio="xMinYMin meet" x="1531.5" y="-256"/>
</g>
<!-- node46&#45;&gt;node47 -->
<g id="edge67" class="edge">
<title>node46&#45;&gt;node47</title>
<path fill="none" stroke="#444443" stroke-width="0.3" d="M1599.2,-205.15C1595.96,-195.78 1592.28,-185.17 1588.89,-175.37"/>
<polygon fill="#444443" stroke="#444443" stroke-width="0.3" points="1590.18,-174.84 1587.55,-171.52 1587.54,-175.76 1590.18,-174.84"/>
</g>
<!-- node46&#45;&gt;node50 -->
<g id="edge68" class="edge">
<title>node46&#45;&gt;node50</title>
<path fill="none" stroke="#444443" stroke-width="0.3" d="M1651.61,-205.39C1669.46,-194.38 1690.16,-181.6 1708.22,-170.45"/>
<polygon fill="#444443" stroke="#444443" stroke-width="0.3" points="1709.13,-171.53 1711.8,-168.24 1707.66,-169.15 1709.13,-171.53"/>
</g>
<!-- node53 -->
<g id="node24" class="node">
<title>node53</title>
<image xlink:href="/var/folders/nn/x3wxl9dd3v7_rq4_cmhvs2hc0000gn/T/node53_56127.svg" width="154px" height="46px" preserveAspectRatio="xMinYMin meet" x="1749.5" y="-256"/>
</g>
<!-- node46&#45;&gt;node53 -->
<!-- leaf54 -->
<g id="node55" class="node">
<title>leaf54</title>
<polygon fill="none" stroke="#444443" stroke-width="0" points="1907,-183 1840,-183 1840,-100 1907,-100 1907,-183"/>
<image xlink:href="/var/folders/nn/x3wxl9dd3v7_rq4_cmhvs2hc0000gn/T/leaf54_56127.svg" width="59px" height="75px" preserveAspectRatio="xMinYMin meet" x="1844.5" y="-178.5"/>
</g>
<!-- node53&#45;&gt;leaf54 -->
<g id="edge70" class="edge">
<title>node53&#45;&gt;leaf54</title>
<path fill="none" stroke="#444443" stroke-width="0.3" d="M1840.35,-205.63C1843.45,-199.71 1846.83,-193.28 1850.21,-186.85"/>
<polygon fill="#444443" stroke="#444443" stroke-width="0.3" points="1851.46,-187.48 1852.08,-183.29 1848.98,-186.18 1851.46,-187.48"/>
</g>
<!-- leaf55 -->
<g id="node56" class="node">
<title>leaf55</title>
<polygon fill="none" stroke="#444443" stroke-width="0" points="1946,-156 1921,-156 1921,-127 1946,-127 1946,-156"/>
<image xlink:href="/var/folders/nn/x3wxl9dd3v7_rq4_cmhvs2hc0000gn/T/leaf55_56127.svg" width="17px" height="21px" preserveAspectRatio="xMinYMin meet" x="1925.5" y="-151.5"/>
</g>
<!-- node53&#45;&gt;leaf55 -->
<g id="edge71" class="edge">
<title>node53&#45;&gt;leaf55</title>
<path fill="none" stroke="#444443" stroke-width="0.3" d="M1857.74,-205.87C1877.35,-189.47 1901.82,-169 1917.55,-155.84"/>
<polygon fill="#444443" stroke="#444443" stroke-width="0.3" points="1918.8,-156.62 1920.97,-152.98 1917,-154.48 1918.8,-156.62"/>
</g>
<!-- node45&#45;&gt;node46 -->
<g id="edge73" class="edge">
<title>node45&#45;&gt;node46</title>
<path fill="none" stroke="#444443" stroke-width="0.3" d="M1561.43,-285.15C1567.91,-278.1 1574.81,-270.61 1581.27,-263.59"/>
<polygon fill="#444443" stroke="#444443" stroke-width="0.3" points="1582.33,-264.51 1584,-260.62 1580.26,-262.61 1582.33,-264.51"/>
</g>
<!-- node45&#45;&gt;node53 -->
<g id="edge74" class="edge">
<title>node45&#45;&gt;node53</title>
<path fill="none" stroke="#444443" stroke-width="0.3" d="M1615.12,-292.8C1654.33,-281.89 1701.31,-268.82 1741.01,-257.78"/>
<polygon fill="#444443" stroke="#444443" stroke-width="0.3" points="1741.84,-259 1745.32,-256.58 1741.09,-256.3 1741.84,-259"/>
</g>
<!-- node35 -->
<g id="node26" class="node">
<title>node35</title>
<image xlink:href="/var/folders/nn/x3wxl9dd3v7_rq4_cmhvs2hc0000gn/T/node35_56127.svg" width="155px" height="61px" preserveAspectRatio="xMinYMin meet" x="1057.5" y="-434.5"/>
</g>
<!-- node35&#45;&gt;node36 -->
<g id="edge76" class="edge">
<title>node35&#45;&gt;node36</title>
<path fill="none" stroke="#444443" stroke-width="0.3" d="M1176.87,-369.76C1186.86,-361.81 1197.39,-353.42 1207.03,-345.74"/>
<polygon fill="#444443" stroke="#444443" stroke-width="0.3" points="1208.01,-346.75 1210.27,-343.17 1206.27,-344.56 1208.01,-346.75"/>
</g>
<!-- node35&#45;&gt;node45 -->
<g id="edge77" class="edge">
<title>node35&#45;&gt;node45</title>
<path fill="none" stroke="#444443" stroke-width="0.3" d="M1216.21,-385.89C1283.72,-371.34 1379.26,-350.74 1447.84,-335.96"/>
<polygon fill="#444443" stroke="#444443" stroke-width="0.3" points="1448.29,-337.3 1451.9,-335.09 1447.7,-334.56 1448.29,-337.3"/>
</g>
<!-- leaf56 -->
<g id="node57" class="node">
<title>leaf56</title>
<polygon fill="none" stroke="#444443" stroke-width="0" points="1289.5,-442 1229.5,-442 1229.5,-367 1289.5,-367 1289.5,-442"/>
<image xlink:href="/var/folders/nn/x3wxl9dd3v7_rq4_cmhvs2hc0000gn/T/leaf56_56127.svg" width="52px" height="67px" preserveAspectRatio="xMinYMin meet" x="1233.5" y="-437.5"/>
</g>
<!-- node35&#45;&gt;leaf56 -->
<!-- node34&#45;&gt;node35 -->
<g id="edge79" class="edge">
<title>node34&#45;&gt;node35</title>
<path fill="none" stroke="#444443" stroke-width="0.3" d="M1065.61,-458.81C1072.81,-453.24 1080.25,-447.48 1087.47,-441.9"/>
<polygon fill="#444443" stroke="#444443" stroke-width="0.3" points="1088.68,-442.73 1090.99,-439.17 1086.97,-440.51 1088.68,-442.73"/>
</g>
<!-- node34&#45;&gt;leaf56 -->
<g id="edge80" class="edge">
<title>node34&#45;&gt;leaf56</title>
<path fill="none" stroke="#444443" stroke-width="0.3" d="M1101.09,-464.24C1143.53,-448.51 1193.13,-430.11 1225.37,-418.16"/>
<polygon fill="#444443" stroke="#444443" stroke-width="0.3" points="1225.95,-419.43 1229.22,-416.73 1224.98,-416.81 1225.95,-419.43"/>
</g>
<!-- node0 -->
<g id="node28" class="node">
<title>node0</title>
<image xlink:href="/var/folders/nn/x3wxl9dd3v7_rq4_cmhvs2hc0000gn/T/node0_56127.svg" width="155px" height="84px" preserveAspectRatio="xMinYMin meet" x="825.5" y="-651"/>
</g>
<!-- node0&#45;&gt;node1 -->
<g id="edge82" class="edge">
<title>node0&#45;&gt;node1</title>
<path fill="none" stroke="#444443" stroke-width="0.3" d="M867.36,-562.97C858.47,-551.58 849.1,-539.56 840.8,-528.93"/>
<polygon fill="#444443" stroke="#444443" stroke-width="0.3" points="841.83,-527.97 838.27,-525.68 839.62,-529.69 841.83,-527.97"/>
<text text-anchor="start" x="859.5" y="-543.8" font-family="Times,serif" font-size="14.00">&lt;</text>
</g>
<!-- node0&#45;&gt;node34 -->
<g id="edge83" class="edge">
<title>node0&#45;&gt;node34</title>
<path fill="none" stroke="#444443" stroke-width="0.3" d="M949.75,-562.97C959.52,-553.66 969.73,-543.93 979.22,-534.88"/>
<polygon fill="#444443" stroke="#444443" stroke-width="0.3" points="980.22,-535.87 982.14,-532.1 978.28,-533.85 980.22,-535.87"/>
<text text-anchor="start" x="971.5" y="-543.8" font-family="Times,serif" font-size="14.00">≥</text>
</g>
<!-- leaf6&#45;&gt;leaf7 -->
<!-- leaf15&#45;&gt;leaf16 -->
<!-- leaf13&#45;&gt;node14 -->
<!-- leaf11&#45;&gt;node12 -->
<!-- leaf21&#45;&gt;leaf22 -->
<!-- leaf24&#45;&gt;leaf25 -->
<!-- leaf28&#45;&gt;leaf29 -->
<!-- leaf31&#45;&gt;leaf32 -->
<!-- leaf40&#45;&gt;leaf41 -->
<!-- leaf43&#45;&gt;leaf44 -->
<!-- leaf37&#45;&gt;node38 -->
<!-- leaf48&#45;&gt;leaf49 -->
<!-- leaf51&#45;&gt;leaf52 -->
<!-- leaf54&#45;&gt;leaf55 -->
<!-- legend -->
<g id="node58" class="node">
<title>legend</title>
<polygon fill="none" stroke="black" stroke-width="0" points="1078,-632 991,-632 991,-586 1078,-586 1078,-632"/>
<image xlink:href="/var/folders/nn/x3wxl9dd3v7_rq4_cmhvs2hc0000gn/T/legend_56127.svg" width="83px" height="42px" preserveAspectRatio="xMinYMin meet" x="993.5" y="-630"/>
</g>
</g>
</svg>
